<?xml version="1.0" encoding="utf-8"?>
<!-- Generator: Adobe Illustrator 24.2.3, SVG Export Plug-In . SVG Version: 6.00 Build 0)  -->
<svg version="1.1" id="Layer_1" xmlns="http://www.w3.org/2000/svg" xmlns:xlink="http://www.w3.org/1999/xlink" x="0px" y="0px"
	 viewBox="0 0 100 100" style="enable-background:new 0 0 100 100;" xml:space="preserve">
<path d="M20.25,25.5h59c2.76,0,5-2.24,5-5v0c0-2.76-2.24-5-5-5h-59c-2.76,0-5,2.24-5,5v0C15.25,23.26,17.49,25.5,20.25,25.5z"/>
<path d="M20.75,85h59c2.76,0,5-2.24,5-5v0c0-2.76-2.24-5-5-5h-59c-2.76,0-5,2.24-5,5v0C15.75,82.76,17.99,85,20.75,85z"/>
<path d="M20.75,55h59c2.76,0,5-2.24,5-5v0c0-2.76-2.24-5-5-5h-59c-2.76,0-5,2.24-5,5v0C15.75,52.76,17.99,55,20.75,55z"/>
</svg>
